<svg id="visual" viewBox="0 0 900 600" width="900" height="600" xmlns="http://www.w3.org/2000/svg" xmlns:xlink="http://www.w3.org/1999/xlink" version="1.1"><g stroke-width="1" stroke-linejoin="bevel"><path d="M427 276L484 173L435 203Z" fill="#112e42" stroke="#112e42"></path><path d="M427 276L573 297L484 173Z" fill="#0c2435" stroke="#0c2435"></path><path d="M511 336L573 297L427 276Z" fill="#19435d" stroke="#19435d"></path><path d="M573 297L578 186L484 173Z" fill="#277297" stroke="#277297"></path><path d="M387 369L509 370L511 336Z" fill="#00101c" stroke="#00101c"></path><path d="M511 336L509 370L573 297Z" fill="#246688" stroke="#246688"></path><path d="M566 68L462 102L484 173Z" fill="#081a28" stroke="#081a28"></path><path d="M484 173L462 102L435 203Z" fill="#205a7a" stroke="#205a7a"></path><path d="M339 326L387 369L427 276Z" fill="#15384f" stroke="#15384f"></path><path d="M427 276L387 369L511 336Z" fill="#205a7a" stroke="#205a7a"></path><path d="M339 326L427 276L260 199Z" fill="#15384f" stroke="#15384f"></path><path d="M260 199L427 276L435 203Z" fill="#205a7a" stroke="#205a7a"></path><path d="M622 393L671 318L573 297Z" fill="#15384f" stroke="#15384f"></path><path d="M573 297L671 318L578 186Z" fill="#19435d" stroke="#19435d"></path><path d="M713 135L566 68L578 186Z" fill="#246688" stroke="#246688"></path><path d="M578 186L566 68L484 173Z" fill="#1d4e6b" stroke="#1d4e6b"></path><path d="M509 370L622 393L573 297Z" fill="#297ea6" stroke="#297ea6"></path><path d="M667 415L622 393L568 514Z" fill="#112e42" stroke="#112e42"></path><path d="M512 0L411 60L462 102Z" fill="#15384f" stroke="#15384f"></path><path d="M462 102L331 108L435 203Z" fill="#19435d" stroke="#19435d"></path><path d="M411 60L331 108L462 102Z" fill="#205a7a" stroke="#205a7a"></path><path d="M671 318L710 188L578 186Z" fill="#0c2435" stroke="#0c2435"></path><path d="M331 108L260 199L435 203Z" fill="#19435d" stroke="#19435d"></path><path d="M622 393L667 415L671 318Z" fill="#112e42" stroke="#112e42"></path><path d="M671 318L794 269L710 188Z" fill="#112e42" stroke="#112e42"></path><path d="M568 514L622 393L509 370Z" fill="#277297" stroke="#277297"></path><path d="M710 188L713 135L578 186Z" fill="#297ea6" stroke="#297ea6"></path><path d="M607 0L512 0L566 68Z" fill="#0c2435" stroke="#0c2435"></path><path d="M566 68L512 0L462 102Z" fill="#1d4e6b" stroke="#1d4e6b"></path><path d="M411 60L338 0L331 108Z" fill="#205a7a" stroke="#205a7a"></path><path d="M331 108L173 134L260 199Z" fill="#081a28" stroke="#081a28"></path><path d="M512 0L387 0L411 60Z" fill="#1d4e6b" stroke="#1d4e6b"></path><path d="M713 135L607 0L566 68Z" fill="#00101c" stroke="#00101c"></path><path d="M266 423L336 473L387 369Z" fill="#0c2435" stroke="#0c2435"></path><path d="M387 369L497 527L509 370Z" fill="#205a7a" stroke="#205a7a"></path><path d="M266 423L387 369L339 326Z" fill="#205a7a" stroke="#205a7a"></path><path d="M497 527L568 514L509 370Z" fill="#15384f" stroke="#15384f"></path><path d="M393 526L497 527L387 369Z" fill="#081a28" stroke="#081a28"></path><path d="M165 316L266 423L339 326Z" fill="#15384f" stroke="#15384f"></path><path d="M387 0L338 0L411 60Z" fill="#277297" stroke="#277297"></path><path d="M173 134L202 235L260 199Z" fill="#277297" stroke="#277297"></path><path d="M260 199L202 235L339 326Z" fill="#15384f" stroke="#15384f"></path><path d="M430 600L393 526L314 600Z" fill="#246688" stroke="#246688"></path><path d="M336 473L393 526L387 369Z" fill="#1d4e6b" stroke="#1d4e6b"></path><path d="M771 414L794 269L671 318Z" fill="#00101c" stroke="#00101c"></path><path d="M710 188L815 110L713 135Z" fill="#277297" stroke="#277297"></path><path d="M719 498L771 414L667 415Z" fill="#112e42" stroke="#112e42"></path><path d="M667 415L771 414L671 318Z" fill="#15384f" stroke="#15384f"></path><path d="M900 280L828 238L794 269Z" fill="#112e42" stroke="#112e42"></path><path d="M794 269L828 238L710 188Z" fill="#112e42" stroke="#112e42"></path><path d="M713 135L736 0L607 0Z" fill="#15384f" stroke="#15384f"></path><path d="M568 514L719 498L667 415Z" fill="#246688" stroke="#246688"></path><path d="M633 600L719 498L568 514Z" fill="#15384f" stroke="#15384f"></path><path d="M202 235L165 316L339 326Z" fill="#00101c" stroke="#00101c"></path><path d="M183 0L173 134L331 108Z" fill="#19435d" stroke="#19435d"></path><path d="M202 235L130 275L165 316Z" fill="#1d4e6b" stroke="#1d4e6b"></path><path d="M815 110L736 0L713 135Z" fill="#246688" stroke="#246688"></path><path d="M828 238L815 110L710 188Z" fill="#112e42" stroke="#112e42"></path><path d="M430 600L473 600L497 527Z" fill="#1d4e6b" stroke="#1d4e6b"></path><path d="M497 527L473 600L568 514Z" fill="#277297" stroke="#277297"></path><path d="M430 600L497 527L393 526Z" fill="#297ea6" stroke="#297ea6"></path><path d="M314 600L336 473L231 600Z" fill="#1d4e6b" stroke="#1d4e6b"></path><path d="M314 600L393 526L336 473Z" fill="#0c2435" stroke="#0c2435"></path><path d="M165 316L174 422L266 423Z" fill="#1d4e6b" stroke="#1d4e6b"></path><path d="M64 214L130 275L202 235Z" fill="#277297" stroke="#277297"></path><path d="M68 428L131 480L174 422Z" fill="#00101c" stroke="#00101c"></path><path d="M473 600L633 600L568 514Z" fill="#277297" stroke="#277297"></path><path d="M900 68L805 0L815 110Z" fill="#277297" stroke="#277297"></path><path d="M815 110L805 0L736 0Z" fill="#246688" stroke="#246688"></path><path d="M805 600L812 486L719 498Z" fill="#246688" stroke="#246688"></path><path d="M719 498L812 486L771 414Z" fill="#246688" stroke="#246688"></path><path d="M771 414L900 280L794 269Z" fill="#1d4e6b" stroke="#1d4e6b"></path><path d="M231 600L336 473L266 423Z" fill="#246688" stroke="#246688"></path><path d="M338 0L183 0L331 108Z" fill="#1d4e6b" stroke="#1d4e6b"></path><path d="M173 134L64 214L202 235Z" fill="#00101c" stroke="#00101c"></path><path d="M633 600L686 600L719 498Z" fill="#205a7a" stroke="#205a7a"></path><path d="M900 423L900 280L771 414Z" fill="#246688" stroke="#246688"></path><path d="M828 238L900 184L815 110Z" fill="#112e42" stroke="#112e42"></path><path d="M900 280L900 184L828 238Z" fill="#081a28" stroke="#081a28"></path><path d="M131 480L164 499L174 422Z" fill="#277297" stroke="#277297"></path><path d="M174 422L164 499L266 423Z" fill="#297ea6" stroke="#297ea6"></path><path d="M87 63L64 214L173 134Z" fill="#15384f" stroke="#15384f"></path><path d="M68 428L174 422L165 316Z" fill="#0c2435" stroke="#0c2435"></path><path d="M68 428L165 316L130 275Z" fill="#205a7a" stroke="#205a7a"></path><path d="M164 499L231 600L266 423Z" fill="#112e42" stroke="#112e42"></path><path d="M183 0L135 0L173 134Z" fill="#15384f" stroke="#15384f"></path><path d="M112 600L231 600L164 499Z" fill="#1d4e6b" stroke="#1d4e6b"></path><path d="M900 496L900 423L812 486Z" fill="#246688" stroke="#246688"></path><path d="M812 486L900 423L771 414Z" fill="#277297" stroke="#277297"></path><path d="M900 184L900 68L815 110Z" fill="#277297" stroke="#277297"></path><path d="M135 0L87 63L173 134Z" fill="#00101c" stroke="#00101c"></path><path d="M0 378L68 428L130 275Z" fill="#246688" stroke="#246688"></path><path d="M131 480L112 600L164 499Z" fill="#00101c" stroke="#00101c"></path><path d="M686 600L805 600L719 498Z" fill="#112e42" stroke="#112e42"></path><path d="M900 68L900 0L805 0Z" fill="#15384f" stroke="#15384f"></path><path d="M805 600L900 496L812 486Z" fill="#081a28" stroke="#081a28"></path><path d="M64 214L0 283L130 275Z" fill="#19435d" stroke="#19435d"></path><path d="M0 193L0 283L64 214Z" fill="#081a28" stroke="#081a28"></path><path d="M0 128L0 193L64 214Z" fill="#246688" stroke="#246688"></path><path d="M0 0L0 128L87 63Z" fill="#00101c" stroke="#00101c"></path><path d="M87 63L0 128L64 214Z" fill="#1d4e6b" stroke="#1d4e6b"></path><path d="M0 283L0 378L130 275Z" fill="#1d4e6b" stroke="#1d4e6b"></path><path d="M0 488L112 600L131 480Z" fill="#205a7a" stroke="#205a7a"></path><path d="M0 488L131 480L68 428Z" fill="#277297" stroke="#277297"></path><path d="M805 600L900 600L900 496Z" fill="#277297" stroke="#277297"></path><path d="M0 378L0 488L68 428Z" fill="#081a28" stroke="#081a28"></path><path d="M135 0L0 0L87 63Z" fill="#1d4e6b" stroke="#1d4e6b"></path><path d="M0 488L0 600L112 600Z" fill="#277297" stroke="#277297"></path></g></svg>